{
    "asset" : {
        "generator" : "Khronos glTF Blender I/O v1.8.19",
        "version" : "2.0"
    },
    "scene" : 0,
    "scenes" : [
        {
            "name" : "Scene",
            "nodes" : [
                0
            ]
        }
    ],
    "nodes" : [
        {
            "mesh" : 0,
            "name" : "\u529e\u516c\u697c15"
        }
    ],
    "materials" : [
        {
            "doubleSided" : true,
            "name" : "Mat3d66-1003769-28-3127.001",
            "pbrMetallicRoughness" : {
                "baseColorTexture" : {
                    "index" : 0
                },
                "metallicFactor" : 0,
                "roughnessFactor" : 0.5
            }
        },
        {
            "doubleSided" : true,
            "name" : "Mat3d66-1003769-25-2442.001",
            "pbrMetallicRoughness" : {
                "baseColorTexture" : {
                    "index" : 1
                },
                "metallicFactor" : 0,
                "roughnessFactor" : 0.8070865869522095
            }
        },
        {
            "alphaMode" : "BLEND",
            "doubleSided" : true,
            "name" : "Mat3d66-1003769-27-4965.001",
            "pbrMetallicRoughness" : {
                "baseColorFactor" : [
                    0.564706027507782,
                    0.7372549772262573,
                    0.8352940082550049,
                    0.8188976049423218
                ],
                "metallicFactor" : 0,
                "roughnessFactor" : 0.7677165269851685
            }
        },
        {
            "doubleSided" : true,
            "name" : "Mat3d66-1003769-24-6329.001",
            "pbrMetallicRoughness" : {
                "baseColorFactor" : [
                    0.2509799897670746,
                    0.2980389893054962,
                    0.34902000427246094,
                    1
                ],
                "metallicFactor" : 0,
                "roughnessFactor" : 0.7755905389785767
            }
        },
        {
            "doubleSided" : true,
            "name" : "Mat3d66-1003769-26-4059.001",
            "pbrMetallicRoughness" : {
                "baseColorTexture" : {
                    "index" : 2
                },
                "metallicFactor" : 0,
                "roughnessFactor" : 0.7913385629653931
            }
        }
    ],
    "meshes" : [
        {
            "name" : "Obj3d66-1003769-37-75",
            "primitives" : [
                {
                    "attributes" : {
                        "POSITION" : 0,
                        "NORMAL" : 1,
                        "TEXCOORD_0" : 2
                    },
                    "indices" : 3,
                    "material" : 0
                },
                {
                    "attributes" : {
                        "POSITION" : 4,
                        "NORMAL" : 5,
                        "TEXCOORD_0" : 6
                    },
                    "indices" : 7,
                    "material" : 1
                },
                {
                    "attributes" : {
                        "POSITION" : 8,
                        "NORMAL" : 9,
                        "TEXCOORD_0" : 10
                    },
                    "indices" : 11,
                    "material" : 2
                },
                {
                    "attributes" : {
                        "POSITION" : 12,
                        "NORMAL" : 13,
                        "TEXCOORD_0" : 14
                    },
                    "indices" : 15,
                    "material" : 3
                },
                {
                    "attributes" : {
                        "POSITION" : 16,
                        "NORMAL" : 17,
                        "TEXCOORD_0" : 18
                    },
                    "indices" : 19,
                    "material" : 4
                }
            ]
        }
    ],
    "textures" : [
        {
            "sampler" : 0,
            "source" : 0
        },
        {
            "sampler" : 0,
            "source" : 1
        },
        {
            "sampler" : 0,
            "source" : 2
        }
    ],
    "images" : [
        {
            "bufferView" : 4,
            "mimeType" : "image/jpeg",
            "name" : "Image_0"
        },
        {
            "bufferView" : 9,
            "mimeType" : "image/jpeg",
            "name" : "Image_1"
        },
        {
            "bufferView" : 22,
            "mimeType" : "image/jpeg",
            "name" : "Image_2"
        }
    ],
    "accessors" : [
        {
            "bufferView" : 0,
            "componentType" : 5126,
            "count" : 1618,
            "max" : [
                31.95507049560547,
                24.000030517578125,
                13.040914535522461
            ],
            "min" : [
                -34.19293212890625,
                1.621246337890625e-05,
                -8.168055534362793
            ],
            "type" : "VEC3"
        },
        {
            "bufferView" : 1,
            "componentType" : 5126,
            "count" : 1618,
            "type" : "VEC3"
        },
        {
            "bufferView" : 2,
            "componentType" : 5126,
            "count" : 1618,
            "type" : "VEC2"
        },
        {
            "bufferView" : 3,
            "componentType" : 5123,
            "count" : 2064,
            "type" : "SCALAR"
        },
        {
            "bufferView" : 5,
            "componentType" : 5126,
            "count" : 5027,
            "max" : [
                31.855072021484375,
                21.70001983642578,
                9.731945991516113
            ],
            "min" : [
                -33.792930603027344,
                2.384185791015625e-05,
                -1.050680160522461
            ],
            "type" : "VEC3"
        },
        {
            "bufferView" : 6,
            "componentType" : 5126,
            "count" : 5027,
            "type" : "VEC3"
        },
        {
            "bufferView" : 7,
            "componentType" : 5126,
            "count" : 5027,
            "type" : "VEC2"
        },
        {
            "bufferView" : 8,
            "componentType" : 5123,
            "count" : 6732,
            "type" : "SCALAR"
        },
        {
            "bufferView" : 10,
            "componentType" : 5126,
            "count" : 160,
            "max" : [
                31.601680755615234,
                21.70001983642578,
                12.09820556640625
            ],
            "min" : [
                -32.19154357910156,
                0.0001068115234375,
                -1.050684928894043
            ],
            "type" : "VEC3"
        },
        {
            "bufferView" : 11,
            "componentType" : 5126,
            "count" : 160,
            "type" : "VEC3"
        },
        {
            "bufferView" : 12,
            "componentType" : 5126,
            "count" : 160,
            "type" : "VEC2"
        },
        {
            "bufferView" : 13,
            "componentType" : 5123,
            "count" : 180,
            "type" : "SCALAR"
        },
        {
            "bufferView" : 14,
            "componentType" : 5126,
            "count" : 13086,
            "max" : [
                31.641677856445312,
                21.180025100708008,
                12.018092155456543
            ],
            "min" : [
                -32.54493713378906,
                2.288818359375e-05,
                -1.0506744384765625
            ],
            "type" : "VEC3"
        },
        {
            "bufferView" : 15,
            "componentType" : 5126,
            "count" : 13086,
            "type" : "VEC3"
        },
        {
            "bufferView" : 16,
            "componentType" : 5126,
            "count" : 13086,
            "type" : "VEC2"
        },
        {
            "bufferView" : 17,
            "componentType" : 5123,
            "count" : 18264,
            "type" : "SCALAR"
        },
        {
            "bufferView" : 18,
            "componentType" : 5126,
            "count" : 180,
            "max" : [
                31.55506134033203,
                22.677167892456055,
                9.131964683532715
            ],
            "min" : [
                -32.14493942260742,
                2.6702880859375e-05,
                -7.768036842346191
            ],
            "type" : "VEC3"
        },
        {
            "bufferView" : 19,
            "componentType" : 5126,
            "count" : 180,
            "type" : "VEC3"
        },
        {
            "bufferView" : 20,
            "componentType" : 5126,
            "count" : 180,
            "type" : "VEC2"
        },
        {
            "bufferView" : 21,
            "componentType" : 5123,
            "count" : 252,
            "type" : "SCALAR"
        }
    ],
    "bufferViews" : [
        {
            "buffer" : 0,
            "byteLength" : 19416,
            "byteOffset" : 0
        },
        {
            "buffer" : 0,
            "byteLength" : 19416,
            "byteOffset" : 19416
        },
        {
            "buffer" : 0,
            "byteLength" : 12944,
            "byteOffset" : 38832
        },
        {
            "buffer" : 0,
            "byteLength" : 4128,
            "byteOffset" : 51776
        },
        {
            "buffer" : 0,
            "byteLength" : 138495,
            "byteOffset" : 55904
        },
        {
            "buffer" : 0,
            "byteLength" : 60324,
            "byteOffset" : 194400
        },
        {
            "buffer" : 0,
            "byteLength" : 60324,
            "byteOffset" : 254724
        },
        {
            "buffer" : 0,
            "byteLength" : 40216,
            "byteOffset" : 315048
        },
        {
            "buffer" : 0,
            "byteLength" : 13464,
            "byteOffset" : 355264
        },
        {
            "buffer" : 0,
            "byteLength" : 126772,
            "byteOffset" : 368728
        },
        {
            "buffer" : 0,
            "byteLength" : 1920,
            "byteOffset" : 495500
        },
        {
            "buffer" : 0,
            "byteLength" : 1920,
            "byteOffset" : 497420
        },
        {
            "buffer" : 0,
            "byteLength" : 1280,
            "byteOffset" : 499340
        },
        {
            "buffer" : 0,
            "byteLength" : 360,
            "byteOffset" : 500620
        },
        {
            "buffer" : 0,
            "byteLength" : 157032,
            "byteOffset" : 500980
        },
        {
            "buffer" : 0,
            "byteLength" : 157032,
            "byteOffset" : 658012
        },
        {
            "buffer" : 0,
            "byteLength" : 104688,
            "byteOffset" : 815044
        },
        {
            "buffer" : 0,
            "byteLength" : 36528,
            "byteOffset" : 919732
        },
        {
            "buffer" : 0,
            "byteLength" : 2160,
            "byteOffset" : 956260
        },
        {
            "buffer" : 0,
            "byteLength" : 2160,
            "byteOffset" : 958420
        },
        {
            "buffer" : 0,
            "byteLength" : 1440,
            "byteOffset" : 960580
        },
        {
            "buffer" : 0,
            "byteLength" : 504,
            "byteOffset" : 962020
        },
        {
            "buffer" : 0,
            "byteLength" : 37172,
            "byteOffset" : 962524
        }
    ],
    "samplers" : [
        {
            "magFilter" : 9729,
            "minFilter" : 9987
        }
    ],
    "buffers" : [
        {
            "byteLength" : 999696,
            "uri" : "data:application/octet-stream;base64,"
        }
    ]
}
